<svg version="1" xmlns="http://www.w3.org/2000/svg" width="370.667" height="370.667" viewBox="0 0 278.000000 278.000000"><path d="M111.8 36.2C84 73.2 79.8 77.9 62.5 91c-10.3 7.8-36.9 28.2-39.5 30.3-.8.7-6.3 4.9-12.3 9.4L0 138.9l7.2 5.8c4 3.2 8.2 6.6 9.3 7.5 1.1.9 17.4 14 36.2 29l34.2 27.3 26 34.8L139 278l14.8-19.7c21.4-28.5 31.1-41.4 33.5-44.8 5.3-7.3 15.2-16.5 30.6-28.3 9.1-6.9 17.3-13.2 18.1-13.9.8-.7 7.1-5.5 14-10.8 6.9-5.2 13.2-10.1 14-10.8.8-.6 4.3-3.3 7.8-5.9l6.3-4.7-17.3-13.8c-9.5-7.6-18.2-14.6-19.3-15.5-1.1-.9-12.8-10.3-26-20.8s-25.3-20.9-27-23c-1.6-2.1-13.3-17.6-25.9-34.4C150 14.8 139.4 1 139 1c-.4 0-12.6 15.9-27.2 35.2z"/></svg>